<?xml version="1.0" encoding="UTF-8"?>
<svg version="1.1" xmlns="http://www.w3.org/2000/svg" width="512" height="512">
<path d="M0 0 C1.49593603 -0.01265991 1.49593603 -0.01265991 3.022093 -0.02557558 C4.67001659 -0.01656051 4.67001659 -0.01656051 6.35123158 -0.00736332 C7.5160463 -0.01274886 8.68086102 -0.01813439 9.88097316 -0.02368313 C13.11970853 -0.03554199 16.35811594 -0.0338782 19.59685457 -0.02651632 C23.08780957 -0.02179852 26.57870863 -0.0342824 30.06964588 -0.04453373 C36.91198523 -0.06175669 43.75423288 -0.06255422 50.59658828 -0.05732083 C56.15900584 -0.053283 61.72139626 -0.05471807 67.28381252 -0.06006908 C68.07484958 -0.06081751 68.86588665 -0.06156593 69.68089453 -0.06233703 C71.28782608 -0.06386849 72.89475763 -0.06540683 74.50168917 -0.066952 C89.58322686 -0.08069064 104.66471272 -0.07523065 119.74624924 -0.06376678 C133.54027311 -0.05384141 147.33416271 -0.06676057 161.12816586 -0.09070098 C175.28962885 -0.11509391 189.45102931 -0.12469885 203.61251289 -0.11804825 C211.56386708 -0.11455537 219.5151181 -0.11679217 227.46645641 -0.13429928 C234.23827197 -0.14902405 241.00991177 -0.14965362 247.78172388 -0.13222837 C251.2359254 -0.12371655 254.68981301 -0.12157261 258.14399815 -0.13687992 C261.89200246 -0.15004739 265.63915282 -0.13857802 269.38712025 -0.12088871 C271.01831343 -0.13529622 271.01831343 -0.13529622 272.68246001 -0.14999479 C280.56470745 -0.07342703 285.81916604 1.56104038 291.87413502 6.63031673 C297.79682714 13.67351817 300.30716676 19.18190087 300.31806278 28.46493721 C300.32190393 29.69488071 300.32574507 30.9248242 300.32970262 32.19203871 C300.32892243 33.55388564 300.32804365 34.91573251 300.32707691 36.27757931 C300.32966139 37.72669819 300.33267478 39.17581636 300.33608031 40.62493354 C300.34414384 44.60768822 300.34593952 48.59042488 300.34667778 52.57318676 C300.34852946 56.86849537 300.35607738 61.16379465 300.362813 65.45909786 C300.37639226 74.85173437 300.38242041 84.2443666 300.38682365 93.63701129 C300.38958677 99.50246982 300.39382426 105.36792671 300.39832783 111.23338413 C300.41051998 127.47497326 300.42081939 143.71656107 300.42420292 159.95815468 C300.42442249 160.99756261 300.42464205 162.03697055 300.42486827 163.10787569 C300.42508655 164.14976229 300.42530483 165.19164889 300.42552972 166.26510781 C300.42597318 168.37634607 300.42641975 170.48758433 300.42686939 172.59882259 C300.42709082 173.64606838 300.42731225 174.69331417 300.42754039 175.77229468 C300.43148806 192.73987295 300.44894139 209.70740826 300.47222891 226.67496993 C300.49594803 244.09770942 300.50840503 261.52042735 300.50957084 278.94318324 C300.51048728 288.7244385 300.51623198 298.5056378 300.53439045 308.28687763 C300.54979898 316.61615081 300.55490745 324.94535073 300.54665235 333.27463546 C300.54274851 337.52294828 300.5436624 341.7711136 300.55770969 346.01940823 C300.57046452 349.91249114 300.56923732 353.80531593 300.55711898 357.69839857 C300.55516472 359.10286167 300.55822789 360.50734315 300.56696334 361.91178044 C300.68183948 381.63806712 300.68183948 381.63806712 293.74913502 388.81781673 C293.17292408 389.43527767 292.59671314 390.05273861 292.00304127 390.68891048 C290.18663502 392.38031673 290.18663502 392.38031673 288.10460377 393.51386166 C285.70746808 395.84661399 285.70723606 397.51201148 285.65793324 400.77579403 C285.66611576 401.4883334 285.67429829 402.20087276 285.68272877 402.93500423 C285.67330753 403.67356655 285.6638863 404.41212887 285.65417957 405.17307186 C285.62550127 407.53410173 285.62245155 409.8941267 285.62413502 412.25531673 C285.62052252 414.60921942 285.61091974 416.96238801 285.58337879 419.31613827 C285.56664917 420.77964721 285.56366891 422.2433971 285.57639027 423.70694637 C285.53138594 428.09169156 285.09434113 431.02600843 282.18663502 434.38031673 C280.20663502 435.04031673 278.22663502 435.70031673 276.18663502 436.38031673 C276.18663502 442.98031673 276.18663502 449.58031673 276.18663502 456.38031673 C279.15663502 457.04031673 282.12663502 457.70031673 285.18663502 458.38031673 C292.21002479 461.99266529 296.92154388 467.76577062 299.49913502 475.13031673 C301.5978488 485.70538909 300.05804577 495.02014193 294.43663502 504.25531673 C289.12020756 509.27638712 283.56995054 512.49987046 276.17697334 512.51453781 C275.13584871 512.51899566 274.09472407 512.5234535 273.0220502 512.52804643 C271.87441815 512.52786207 270.7267861 512.5276777 269.54437733 512.52748775 C268.3280374 512.53116444 267.11169747 512.53484113 265.85849875 512.53862923 C262.47568089 512.54775908 259.09291156 512.55236647 255.71008599 512.55501854 C252.06357419 512.55892119 248.41707645 512.56849998 244.77057362 512.57723141 C235.95743209 512.59700338 227.14428941 512.60706579 218.33113125 512.6159592 C214.17755927 512.62034342 210.02398857 512.62571011 205.87041759 512.63094807 C192.05488347 512.64796581 178.23935014 512.66245669 164.42380714 512.66969681 C160.83766968 512.67160663 157.25153222 512.67352697 153.66539478 512.67548275 C152.77410382 512.67596649 151.88281286 512.67645023 150.96451309 512.67694863 C136.54865245 512.68523647 122.13287514 512.71054983 107.71705083 512.74306343 C92.90467438 512.77619776 78.09234016 512.79415157 63.27992648 512.79734105 C54.96836415 512.79950093 46.65692309 512.8081721 38.345397 512.83380222 C31.26128437 512.85559697 24.17732245 512.86351704 17.0931801 512.85383544 C13.48405934 512.84931512 9.8752489 512.85104266 6.26617146 512.87059689 C-27.64498567 513.04418298 -27.64498567 513.04418298 -43.25086498 504.50531673 C-43.91352367 504.15726986 -44.57618237 503.80922298 -45.25892162 503.45062923 C-67.38253433 491.64992296 -81.64397714 473.96460918 -88.98914623 450.00141048 C-91.3819713 439.48885676 -92.10611517 429.24891524 -92.07406139 418.49219418 C-92.07708908 417.03290893 -92.08098164 415.57362527 -92.08565396 414.11434436 C-92.09586332 410.14035137 -92.09377033 406.1664493 -92.08947337 402.19244909 C-92.08699318 397.89237071 -92.09603631 393.59231349 -92.10351086 389.292243 C-92.11622448 380.88147231 -92.11805569 372.4707336 -92.11571059 364.05995491 C-92.1139234 357.21877868 -92.11568566 350.37761211 -92.11993504 343.53643703 C-92.12053022 342.56062881 -92.12112541 341.58482059 -92.12173864 340.57944243 C-92.12295047 338.5967018 -92.1241646 336.61396117 -92.12538102 334.63122055 C-92.13624386 316.05947492 -92.13410011 297.48774746 -92.12799617 278.91600081 C-92.12282908 261.95365701 -92.13407921 244.99137066 -92.15309439 228.02903822 C-92.17250159 210.58227769 -92.18072368 193.1355443 -92.17697114 175.68877292 C-92.17506334 165.90574136 -92.17750535 156.12275869 -92.19168568 146.33973598 C-92.2036373 138.01048555 -92.20496222 129.68131409 -92.19289551 121.35206249 C-92.18703304 117.10890644 -92.1858338 112.86589457 -92.19789791 108.62274837 C-92.28628195 75.2816413 -89.16652119 47.22462904 -64.81336498 22.38031673 C-56.50993342 14.75471632 -56.50993342 14.75471632 -51.45008373 14.05219173 C-47.95733046 14.38422678 -45.7204972 15.44222859 -42.81336498 17.38031673 C-40.38517816 16.6113263 -40.38517816 16.6113263 -37.81336498 15.19281673 C-28.3204959 10.61478394 -19.30390541 8.91125159 -8.81336498 8.38031673 C-8.71023998 7.61719173 -8.60711498 6.85406673 -8.50086498 6.06781673 C-7.2332407 1.11255819 -4.93938446 0.00588802 0 0 Z " fill="#FE6C79" transform="translate(151.81336498260498,-0.38031673431396484)"/>
<path d="M0 0 C1.49892261 -0.01564648 1.49892261 -0.01564648 3.02812648 -0.03160906 C4.67168081 -0.01822473 4.67168081 -0.01822473 6.34843826 -0.00457001 C7.51410741 -0.01080997 8.67977656 -0.01704993 9.88076901 -0.02347898 C13.11734116 -0.03668863 16.35331497 -0.03191402 19.58987236 -0.01953411 C23.08013624 -0.01049654 26.57031825 -0.02444715 30.06056595 -0.0354538 C36.89945702 -0.05325978 43.73817268 -0.04938921 50.57707068 -0.03780323 C56.13660909 -0.02877437 61.6960983 -0.02754254 67.25564194 -0.0318985 C68.04654351 -0.03251143 68.83744508 -0.03312436 69.65231337 -0.03375587 C71.2590034 -0.03503477 72.86569341 -0.03633162 74.47238341 -0.03764623 C89.54726906 -0.04905888 104.62205751 -0.03592917 119.69692722 -0.01444477 C132.62713869 0.00341301 145.55720646 0.00033436 158.48741531 -0.01811981 C173.50167941 -0.03953835 188.51585815 -0.04794559 203.53013539 -0.03567076 C205.13218004 -0.03439657 206.7342247 -0.03313909 208.33626938 -0.0318985 C209.51861421 -0.03097285 209.51861421 -0.03097285 210.7248448 -0.03002849 C216.27457534 -0.0265775 221.82425169 -0.03239881 227.37397385 -0.04181671 C234.14211454 -0.05304962 240.91006973 -0.0499702 247.67818925 -0.02869374 C251.13036616 -0.0181984 254.58223411 -0.014035 258.03440857 -0.02729034 C261.78018126 -0.03821719 265.52508428 -0.0245145 269.27080154 -0.00457001 C270.90097155 -0.01795434 270.90097155 -0.01795434 272.56407428 -0.03160906 C280.44239302 0.0497791 285.69891968 1.68643362 291.75108719 6.75336456 C297.67377931 13.796566 300.18411893 19.3049487 300.19501495 28.58798504 C300.1988561 29.81792854 300.20269724 31.04787203 300.20665479 32.31508654 C300.2058746 33.67693347 300.20499582 35.03878033 300.20402908 36.40062714 C300.20661356 37.84974602 300.20962696 39.29886419 300.21303248 40.74798137 C300.22109601 44.73073605 300.2228917 48.71347271 300.22362995 52.69623458 C300.22548163 56.9915432 300.23302955 61.28684248 300.23976517 65.58214569 C300.25334444 74.9747822 300.25937258 84.36741443 300.26377583 93.76005912 C300.26653894 99.62551765 300.27077643 105.49097454 300.27528 111.35643196 C300.28747215 127.59802109 300.29777156 143.8396089 300.30115509 160.08120251 C300.30137466 161.12061044 300.30159422 162.16001838 300.30182044 163.23092352 C300.30203872 164.27281012 300.302257 165.31469672 300.30248189 166.38815564 C300.30292535 168.4993939 300.30337192 170.61063216 300.30382156 172.72187042 C300.30404299 173.76911621 300.30426442 174.816362 300.30449256 175.89534251 C300.30844024 192.86292077 300.32589356 209.83045609 300.34918109 226.79801776 C300.3729002 244.22075725 300.3853572 261.64347518 300.38652301 279.06623107 C300.38743945 288.84748633 300.39318415 298.62868562 300.41134262 308.40992546 C300.42675115 316.73919864 300.43185962 325.06839856 300.42360452 333.39768329 C300.41970068 337.64599611 300.42061457 341.89416143 300.43466187 346.14245605 C300.44741669 350.03553897 300.44618949 353.92836376 300.43407115 357.8214464 C300.43211689 359.22590949 300.43518006 360.63039098 300.44391552 362.03482827 C300.55879166 381.76111495 300.55879166 381.76111495 293.62608719 388.94086456 C293.04987625 389.5583255 292.47366531 390.17578644 291.87999344 390.81195831 C290.06358719 392.50336456 290.06358719 392.50336456 287.98155594 393.63690948 C285.58442025 395.96966182 285.58418823 397.63505931 285.53488541 400.89884186 C285.54306793 401.61138123 285.55125046 402.32392059 285.55968094 403.05805206 C285.5502597 403.79661438 285.54083847 404.5351767 285.53113174 405.29611969 C285.50245344 407.65714956 285.49940372 410.01717453 285.50108719 412.37836456 C285.49747469 414.73226725 285.48787191 417.08543584 285.46033096 419.4391861 C285.44360134 420.90269504 285.44062108 422.36644493 285.45334244 423.8299942 C285.40833811 428.21473938 284.9712933 431.14905626 282.06358719 434.50336456 C280.08358719 435.16336456 278.10358719 435.82336456 276.06358719 436.50336456 C276.06358719 443.10336456 276.06358719 449.70336456 276.06358719 456.50336456 C279.03358719 457.16336456 282.00358719 457.82336456 285.06358719 458.50336456 C292.08697696 462.11571312 296.79849605 467.88881845 299.37608719 475.25336456 C301.47480097 485.82843692 299.93499794 495.14318976 294.31358719 504.37836456 C288.99715973 509.39943494 283.44690271 512.62291829 276.05392551 512.63758564 C275.01280088 512.64204348 273.97167624 512.64650133 272.89900237 512.65109426 C271.75137032 512.6509099 270.60373828 512.65072553 269.4213295 512.65053558 C268.20498957 512.65421227 266.98864964 512.65788896 265.73545092 512.66167706 C262.35263306 512.6708069 258.96986373 512.6754143 255.58703816 512.67806637 C251.94052636 512.68196902 248.29402862 512.69154781 244.64752579 512.70027924 C235.83438427 512.72005121 227.02124158 512.73011361 218.20808342 512.73900703 C214.05451144 512.74339124 209.90094074 512.74875794 205.74736977 512.7539959 C191.93183564 512.77101363 178.11630231 512.78550452 164.30075932 512.79274464 C160.71462185 512.79465446 157.12848439 512.79657479 153.54234695 512.79853058 C152.65105599 512.79901432 151.75976503 512.79949806 150.84146526 512.79999646 C136.42560462 512.8082843 122.00982731 512.83359766 107.594003 512.86611126 C92.78162656 512.89924558 77.96929233 512.91719939 63.15687865 512.92038888 C54.84531632 512.92254876 46.53387527 512.93121992 38.22234917 512.95685005 C31.13823654 512.9786448 24.05427462 512.98656487 16.97013227 512.97688327 C13.36101151 512.97236295 9.75220107 512.97409049 6.14312363 512.99364471 C-27.7680335 513.16723081 -27.7680335 513.16723081 -43.37391281 504.62836456 C-44.0365715 504.28031769 -44.69923019 503.93227081 -45.38196945 503.57367706 C-67.50558215 491.77297079 -81.76702497 474.08765701 -89.11219406 450.12445831 C-91.50501913 439.61190459 -92.229163 429.37196307 -92.19710922 418.615242 C-92.20013691 417.15595676 -92.20402946 415.6966731 -92.20870179 414.23739219 C-92.21891115 410.26339919 -92.21681816 406.28949713 -92.2125212 402.31549692 C-92.21004101 398.01541854 -92.21908414 393.71536132 -92.22655869 389.41529083 C-92.23927231 381.00452014 -92.24110352 372.59378142 -92.23875842 364.18300274 C-92.23697123 357.34182651 -92.23873348 350.50065994 -92.24298286 343.65948486 C-92.24357805 342.68367664 -92.24417324 341.70786842 -92.24478647 340.70249026 C-92.24599829 338.71974963 -92.24721243 336.737009 -92.24842884 334.75426838 C-92.25929169 316.18252274 -92.25714794 297.61079529 -92.251044 279.03904864 C-92.24587691 262.07670483 -92.25712704 245.11441849 -92.27614222 228.15208605 C-92.29554942 210.70532552 -92.30377151 193.25859213 -92.30001897 175.81182075 C-92.29811117 166.02878919 -92.30055318 156.24580652 -92.31473351 146.46278381 C-92.32668512 138.13353338 -92.32801004 129.80436192 -92.31594334 121.47511032 C-92.31008087 117.23195427 -92.30888162 112.9889424 -92.32094574 108.7457962 C-92.40932978 75.40468912 -89.28956902 47.34767686 -64.93641281 22.50336456 C-56.73998504 14.97603294 -56.73998504 14.97603294 -51.57313156 14.10492706 C-48.50060899 14.3183747 -46.35324624 15.17771344 -43.93641281 17.06586456 C-42.49168608 20.58738597 -42.15837039 23.80581057 -42.93641281 27.50336456 C-44.91108104 30.01657867 -46.99185175 31.77443531 -49.51063156 33.71820831 C-63.49433753 44.96384598 -70.58701346 61.0647377 -72.93641281 78.50336456 C-73.31095112 83.58836107 -73.33981167 88.6526956 -73.31063461 93.74829865 C-73.31338309 95.22183669 -73.31744186 96.69537276 -73.32267827 98.16890407 C-73.33315835 102.17281626 -73.32520649 106.17650172 -73.31392777 110.18040371 C-73.30501966 114.51577857 -73.3135481 118.85112586 -73.31978989 123.18650055 C-73.32924072 131.66051245 -73.32271126 140.13443873 -73.31052694 148.60844424 C-73.29685588 158.48697217 -73.29854922 168.36548008 -73.30066027 178.24401507 C-73.30384457 195.87280012 -73.29221339 213.50154465 -73.27259445 231.13031769 C-73.25358113 248.21952294 -73.24651064 265.30868074 -73.25208664 282.39789581 C-73.25814906 301.03284276 -73.25795976 319.66776889 -73.24660081 338.30271411 C-73.24539358 340.29080884 -73.24418759 342.27890356 -73.24298286 344.26699829 C-73.24237933 345.2450489 -73.24177579 346.2230995 -73.24115396 347.23078801 C-73.23728104 354.11021585 -73.23766596 360.98963592 -73.23956871 367.86906433 C-73.24169417 376.25405828 -73.23643969 384.63901076 -73.22195516 393.02399305 C-73.21472912 397.29879092 -73.21061887 401.57352851 -73.21519852 405.84833145 C-73.21929374 409.7663183 -73.21405638 413.68418102 -73.20157244 417.6021491 C-73.19865998 419.01440103 -73.19905465 420.42666478 -73.20321552 421.83891359 C-73.25150121 439.87409948 -69.4625018 454.63865341 -58.93641281 469.50336456 C-58.21453781 470.53461456 -57.49266281 471.56586456 -56.74891281 472.62836456 C-46.01619531 484.72009499 -28.95034078 493.31481932 -12.91937923 494.77890635 C-9.75415947 494.8803181 -6.60158067 494.89408278 -3.4348259 494.87085724 C-2.23499777 494.87412608 -1.03516965 494.87739492 0.2010169 494.88076282 C3.49557041 494.8867404 6.78976947 494.87942581 10.08429146 494.86622047 C13.6506578 494.8552437 17.21700001 494.86174774 20.78337479 494.86600494 C27.75349997 494.87161624 34.72351441 494.86136723 41.69362074 494.84571698 C49.8135427 494.82812559 57.93344358 494.82675667 66.05338162 494.82610139 C80.53727607 494.82441636 95.02112025 494.80863495 109.50499344 494.78461456 C123.5583831 494.76132507 137.61174088 494.74718463 151.66514969 494.74359894 C152.96533231 494.74326479 152.96533231 494.74326479 154.29178125 494.74292389 C156.03796696 494.74248128 157.78415267 494.74203926 159.53033838 494.74159782 C160.82241326 494.74126847 160.82241326 494.74126847 162.14059067 494.74093246 C163.42941618 494.74060849 163.42941618 494.74060849 164.74427858 494.74027796 C178.14538292 494.73657904 191.54648214 494.72522244 204.94758084 494.71280207 C209.80368339 494.70836716 214.65978545 494.70492879 219.51588923 494.70217994 C227.21237616 494.69775037 234.90884413 494.68998525 242.60531908 494.67540553 C246.12176412 494.66879525 249.63819242 494.66373206 253.15464401 494.66294479 C256.96240316 494.66201435 260.77012153 494.65333465 264.57786942 494.64380646 C266.25234957 494.64510618 266.25234957 494.64510618 267.9606576 494.64643216 C268.97837291 494.64259102 269.99608823 494.63874987 271.0446434 494.63479233 C271.92364634 494.63354583 272.80264928 494.63229933 273.70828867 494.63101506 C275.95943961 494.50900907 277.90467568 494.13297487 280.06358719 493.50336456 C280.92665402 490.47210547 281.2848574 487.65319319 281.37608719 484.50336456 C281.41347 483.65773956 281.45085281 482.81211456 281.48936844 481.94086456 C281.2103864 479.44235375 281.2103864 479.44235375 279.73780346 477.3817749 C275.42690407 474.35373335 270.99168567 474.96175217 265.85034561 475.01129913 C264.69228785 475.00662014 263.53423008 475.00194116 262.34107965 474.99712038 C259.12554576 474.9880685 255.91062758 474.99692301 252.69514024 475.01319528 C249.22729073 475.02635585 245.75950097 475.01640497 242.29164505 475.00908661 C236.2801043 474.99939876 230.26870842 475.00388161 224.25717735 475.01750946 C215.5513478 475.03687329 206.84568111 475.03043214 198.13984733 475.01693565 C183.99682489 474.9953407 169.85384082 474.98864301 155.71080399 474.99408722 C154.86415082 474.99440785 154.01749765 474.99472849 153.14518832 474.99505883 C146.28064003 474.99776976 139.41609213 475.00119859 132.55154419 475.00466442 C126.56426632 475.00765815 120.57698842 475.01036715 114.58971024 475.01264191 C113.74681763 475.01296742 112.90392503 475.01329293 112.03549022 475.0136283 C97.95645304 475.01857899 83.87746906 475.00785628 69.7984485 474.98607016 C61.12118387 474.97339964 52.44413924 474.97477605 43.76688664 474.99452102 C37.812108 475.00717409 31.85744041 475.00562501 25.90266181 474.99314749 C22.47212844 474.9864656 19.04192006 474.9862168 15.61141777 475.00372887 C11.88056221 475.01941101 8.15052287 475.01032343 4.41968155 474.99542999 C3.3513567 475.00591889 2.28303186 475.01640779 1.18233353 475.02721453 C-12.97047552 474.90213542 -25.37272252 469.81778948 -35.74891281 460.19086456 C-46.30305999 448.85211652 -48.7998801 436.37255274 -48.35047531 421.36664581 C-47.96277072 415.0426719 -46.1184143 409.96062305 -42.93641281 404.50336456 C-42.47879562 403.68609894 -42.02117844 402.86883331 -41.54969406 402.02680206 C-35.13829831 391.52265231 -24.78360308 384.52097424 -13.04819626 380.92473245 C-10.64213766 380.44464732 -8.4301618 380.37851793 -5.97600269 380.37866592 C-4.46907985 380.3750795 -4.46907985 380.3750795 -2.93171412 380.37142062 C-1.83007392 380.37385311 -0.72843372 380.37628561 0.40658951 380.37879181 C1.57845891 380.37738166 2.7503283 380.37597151 3.9577089 380.37451863 C7.21128235 380.37149676 10.46482027 380.37289702 13.71839249 380.37605119 C17.2269738 380.37832181 20.73554916 380.37477501 24.24412918 380.37172699 C29.53611845 380.36763664 34.8281032 380.36539736 40.12009407 380.365311 C50.51689283 380.3651083 60.91364493 380.35265112 71.31042862 380.33570099 C72.94693594 380.33309521 74.58344327 380.3304964 76.21995062 380.32790446 C78.70007615 380.32396607 81.18020167 380.32001955 83.66032715 380.31604324 C93.0103215 380.30109752 102.36031727 380.28747223 111.7103157 380.27533722 C112.56504859 380.27422366 113.41978147 380.2731101 114.30041534 380.27196279 C128.15778931 380.25437986 142.01513408 380.25151927 155.87251734 380.25318763 C170.09618441 380.25446596 184.31974267 380.2367503 198.54336792 380.20216966 C207.3189309 380.18150123 216.09423348 380.17619602 224.86981035 380.19049796 C230.8815765 380.19894705 236.89313986 380.18925192 242.90486317 380.16518846 C246.37495508 380.15186084 249.8445608 380.14672621 253.31464958 380.1633091 C257.07477604 380.17709337 260.83355834 380.16038529 264.59360123 380.13587189 C265.6930107 380.14722727 266.79242018 380.15858264 267.92514509 380.17028213 C272.33286815 380.11417185 275.30571946 379.90103054 279.2424612 377.83535576 C282.24022301 372.35055349 281.73632849 366.68011778 281.6715889 360.55899811 C281.67448547 359.10488537 281.67957611 357.65077563 281.68667281 356.19667733 C281.69980359 352.20017122 281.68171712 348.20431953 281.65857434 344.20788121 C281.63905525 339.89838814 281.6483732 335.58894648 281.65416336 331.27942657 C281.66098638 322.83740339 281.64130378 314.39563809 281.61300008 305.95366774 C281.58118624 296.1284654 281.57675133 286.30330883 281.57380815 276.47806241 C281.56774107 258.9520973 281.53860715 241.42624779 281.49571609 223.90033722 C281.45410341 206.88210575 281.42578034 189.86392851 281.41368484 172.84564972 C281.41293663 171.7972371 281.41218842 170.74882449 281.41141753 169.66864179 C281.40844341 165.45487765 281.40550611 161.24111349 281.40263125 157.02734929 C281.38990426 138.86929764 281.3661426 120.71125815 281.34099299 102.55322009 C281.33700968 99.60945664 281.33329155 96.66569295 281.32963896 93.72192907 C281.31662539 83.41944998 281.30031564 73.11699238 281.27465455 62.8145362 C281.26405327 58.55296859 281.25495147 54.29141312 281.25008392 50.02983475 C281.24554687 46.13286695 281.23638691 42.23593909 281.22342248 38.33899046 C281.21951108 36.92523689 281.21728452 35.5114775 281.21686427 34.09771858 C281.21602441 32.18375688 281.20850397 30.26980152 281.20060158 28.35585594 C281.19710561 26.75769155 281.19710561 26.75769155 281.19353902 25.12724102 C281.17597624 22.39234329 281.17597624 22.39234329 280.06358719 19.50336456 C277.20377575 18.40665593 274.42384007 18.37463642 271.38594055 18.36469936 C270.44442634 18.35922492 269.50291214 18.35375048 268.53286719 18.34811014 C267.50174442 18.34713203 266.47062164 18.34615393 265.40825272 18.34514618 C263.76153812 18.33773921 263.76153812 18.33773921 262.08155656 18.33018261 C258.39034697 18.31478247 254.69915481 18.30644014 251.00792313 18.2980423 C248.36697001 18.28846575 245.72602106 18.27849922 243.08507156 18.26804352 C237.39277497 18.24628691 231.70047603 18.22813944 226.00815964 18.21243858 C217.77801173 18.18973253 209.54788949 18.16159072 201.31776336 18.13211931 C187.96514565 18.08445242 174.61251746 18.04118578 161.25987625 18.00067902 C148.28851378 17.9613195 135.31716063 17.91989217 122.34581375 17.87567902 C121.54634983 17.87295474 120.74688591 17.87023047 119.92319581 17.86742365 C115.91254713 17.85374409 111.9018986 17.84002383 107.89125013 17.82628334 C74.61538172 17.71233275 41.33949393 17.60552025 8.06358719 17.50336456 C8.06472635 18.18280819 8.06586551 18.86225182 8.06703919 19.56228465 C8.134141 59.81175362 8.18563046 100.06121539 8.21678318 140.31072895 C8.2205354 145.14113558 8.22441835 149.97154209 8.22838211 154.80194855 C8.22916904 155.76361495 8.22995597 156.72528136 8.23076675 157.71608917 C8.24382859 173.2970577 8.26748671 188.8779931 8.29504558 204.45894196 C8.32307814 220.44072941 8.33975889 236.42249949 8.34585267 252.40431052 C8.34997358 262.26975256 8.36299952 272.13510096 8.38733659 282.00051419 C8.40316725 288.76119673 8.40799361 295.52183071 8.40409132 302.28253045 C8.4021656 306.18590276 8.40516365 310.08911119 8.42120361 313.99245453 C8.43845334 318.22098657 8.4325672 322.44916767 8.42435074 326.67772675 C8.43308926 327.91604789 8.44182779 329.15436903 8.45083112 330.43021506 C8.44485797 331.56182368 8.43888482 332.6934323 8.43273067 333.85933208 C8.43386984 334.83559305 8.435009 335.81185402 8.43618268 336.81769866 C7.99261782 340.01491132 6.9478863 341.9041062 5.06358719 344.50336456 C1.92957834 346.07036899 -1.56796376 346.35501017 -4.93641281 345.50336456 C-8.4171601 341.90803489 -9.43659947 339.6267338 -9.43977737 334.65186214 C-9.45542386 332.8849981 -9.45542386 332.8849981 -9.47138643 331.08243984 C-9.4580021 329.14734093 -9.4580021 329.14734093 -9.44434738 327.17314911 C-9.44895656 325.78574502 -9.45530959 324.39834581 -9.46325636 323.01095682 C-9.47997064 319.19891442 -9.47169404 315.38727203 -9.45931149 311.5752281 C-9.4502719 307.46406223 -9.46422522 303.35296579 -9.47523117 299.24181366 C-9.49303222 291.18853684 -9.48916951 283.13540901 -9.47758061 275.08212631 C-9.46855341 268.5385978 -9.46731919 261.99511109 -9.47167587 255.45157814 C-9.4722888 254.5208891 -9.47290174 253.59020007 -9.47353324 252.63130834 C-9.47481212 250.74074692 -9.47610897 248.85018551 -9.47742361 246.95962412 C-9.48883389 229.22570551 -9.47570835 211.49186956 -9.45422214 193.7579645 C-9.43634781 178.53365217 -9.43945716 163.30946181 -9.45789719 148.08515167 C-9.47929093 130.41389394 -9.48773831 112.74270867 -9.47544813 95.0714398 C-9.47417391 93.18807162 -9.47291642 91.30470343 -9.47167587 89.42133522 C-9.47105877 88.49463196 -9.47044167 87.56792869 -9.46980587 86.61314351 C-9.46634869 80.0751742 -9.47218915 73.53725077 -9.48159409 66.99928856 C-9.49279871 59.03505183 -9.48980637 51.07097284 -9.46847111 43.10675424 C-9.45794034 39.04142569 -9.45387315 34.97636038 -9.46706772 30.91103363 C-9.47895571 27.19210578 -9.47248928 23.47368607 -9.45115751 19.75480456 C-9.44454728 17.76671789 -9.45765959 15.77859615 -9.47138643 13.79054588 C-9.45573995 12.02759346 -9.45573995 12.02759346 -9.43977737 10.22902584 C-9.43912796 9.21256684 -9.43847856 8.19610783 -9.43780947 7.14884704 C-8.41857084 1.77111287 -5.19866387 0.00391226 0 0 Z " fill="#010001" transform="translate(151.9364128112793,-0.5033645629882813)"/>
<path d="M0 0 C0.00097681 0.70098305 0.00195362 1.40196609 0.00296003 2.12419105 C0.06119467 43.64291746 0.13496303 85.16159087 0.22898628 126.68025242 C0.24025484 131.66216021 0.25139323 136.64406829 0.26245117 141.62597656 C0.26465486 142.61781143 0.26685854 143.60964629 0.269129 144.63153675 C0.30452991 160.70461109 0.32937826 176.77768537 0.35034702 192.85078427 C0.37208685 209.33545577 0.4051199 225.82007654 0.44870156 242.3047049 C0.47524967 252.48182021 0.49292175 262.65887227 0.49934604 272.8360205 C0.50459028 279.80884283 0.52077467 286.7815855 0.54566566 293.75436518 C0.55971384 297.78112945 0.56883916 301.807751 0.56500816 305.83454132 C0.56160954 309.51844846 0.57189513 313.20205025 0.59323552 316.88589481 C0.60103627 318.85531589 0.59404066 320.82477825 0.58658296 322.79420066 C0.5960395 323.95865218 0.60549604 325.12310371 0.61523914 326.32284164 C0.61713775 327.32985996 0.61903635 328.33687828 0.62099248 329.3744123 C1.0654326 332.45328659 1.79975781 333.81828453 4 336 C7.60465748 336.81314911 7.60465748 336.81314911 11 337 C10.01 337.33 9.02 337.66 8 338 C8 348.89 8 359.78 8 371 C99.41 371 190.82 371 285 371 C285 371.33 285 371.66 285 372 C284.39689363 372.00059709 283.79378726 372.00119418 283.17240494 372.00180936 C247.40668231 372.03772366 211.64105096 372.09439386 175.87540705 372.17792095 C171.57847809 372.1879381 167.28154875 372.19778228 162.98461914 372.20751953 C162.12919812 372.2094609 161.27377709 372.21140228 160.39243422 372.21340248 C146.5518029 372.2444015 132.71118815 372.26139727 118.87052866 372.27319422 C104.66278243 372.28561666 90.455123 372.31314271 76.24743158 372.35461307 C67.48448174 372.37971721 58.72167591 372.39311953 49.95868961 372.39142957 C43.94498694 372.39139976 37.93143066 372.40607529 31.91778507 372.43216428 C28.45109961 372.44677422 24.98471434 372.45504443 21.51800346 372.44580269 C17.75115964 372.43915647 13.98518584 372.45710076 10.21842957 372.48101807 C9.13376866 372.47325765 8.04910776 372.46549723 6.93157834 372.45750165 C-5.58552065 372.59775767 -16.7918057 377.45822366 -26.0703125 385.87890625 C-36.22146647 396.75514265 -38.51525108 408.81590561 -38.2421875 423.13671875 C-37.78210673 435.13298328 -32.50702441 445.02824353 -23.8125 453.3125 C-12.81745498 462.45002035 -1.1833202 465.31363855 12.74809265 465.24482727 C13.91521264 465.24709184 15.08233264 465.24935642 16.2848199 465.25168961 C19.50659586 465.25605541 22.72821793 465.25157276 25.94998181 465.243379 C29.43122822 465.23676604 32.91245941 465.24180426 36.39370728 465.24560547 C42.42043324 465.25081837 48.447127 465.24934334 54.47385216 465.24382973 C63.99869278 465.23560381 73.52346429 465.24685636 83.04829407 465.2610321 C86.30927165 465.26563258 89.57024943 465.27008301 92.8312273 465.27447033 C93.64603422 465.27556847 94.46084115 465.27666661 95.30033919 465.27779803 C104.56488814 465.2899602 113.8294393 465.29752127 123.09399414 465.3034668 C123.94048379 465.30401486 124.78697343 465.30456292 125.65911428 465.30512758 C139.39336979 465.31359685 153.12760574 465.31024301 166.86186137 465.30431245 C180.96812657 465.29869863 195.07429298 465.31220808 209.18052799 465.34186524 C217.87959628 465.35941714 226.57837922 465.36102722 235.27744625 465.34222009 C241.23403326 465.33063059 247.1904273 465.3370351 253.14698919 465.3576893 C256.58471412 465.3690282 260.02194206 465.37214382 263.45964622 465.35351372 C267.18451628 465.33749652 270.90804945 465.35196938 274.63285828 465.3742218 C275.72175738 465.3621843 276.81065647 465.35014681 277.93255252 465.33774453 C285.23578973 465.42707978 285.23578973 465.42707978 289.17553425 468.38066387 C291.18855727 471.27070658 291.6040266 472.58692879 291.4375 476.0625 C291.40462891 477.31740234 291.40462891 477.31740234 291.37109375 478.59765625 C290.97133037 481.18559813 290.46237005 482.82746941 289 485 C285.92888332 486.91164479 283.5724386 487.25151456 279.98664284 487.25726891 C278.97016092 487.2637178 277.953679 487.27016669 276.9063946 487.276811 C275.23396081 487.2721652 275.23396081 487.2721652 273.52774048 487.26742554 C272.34180341 487.27195665 271.15586634 487.27648776 269.93399179 487.28115618 C266.64072596 487.2916391 263.34767824 487.29312384 260.05441117 487.29076743 C256.50269899 487.29035963 252.9510195 487.30139532 249.39932251 487.31088257 C242.4381516 487.32750541 235.47701456 487.33299281 228.51582547 487.33410732 C222.85337353 487.33505778 217.19093275 487.33916799 211.52848434 487.34550858 C195.46447225 487.36312932 179.4004869 487.37234687 163.33646508 487.37084763 C162.47020211 487.37076772 161.60393914 487.3706878 160.71142578 487.37060547 C159.41043804 487.37048283 159.41043804 487.37048283 158.08316772 487.37035771 C144.04753823 487.36954596 130.01201636 487.3886534 115.97641797 487.4168822 C101.55499783 487.44565712 87.13363006 487.45941977 72.7121805 487.45769465 C64.61979722 487.45703204 56.52752657 487.46246692 48.43516922 487.48405075 C41.53985871 487.50232391 34.64471178 487.50656032 27.74938746 487.4930319 C24.23569842 487.48653121 20.72232259 487.48627846 17.20866394 487.5037384 C-9.80942042 487.6134194 -9.80942042 487.6134194 -21 483 C-21.71530066 482.72503378 -22.43060131 482.45006756 -23.16757774 482.16676903 C-41.65697808 474.55330955 -53.10685575 460.85902398 -61 443 C-65.19220139 432.72680318 -65.14820578 422.58648325 -65.14044189 411.62376404 C-65.14302862 410.15912027 -65.14604264 408.6944772 -65.1494453 407.22983509 C-65.15748242 403.21790525 -65.15930303 399.20599333 -65.16004276 395.19405639 C-65.16189907 390.86189478 -65.16944929 386.52974234 -65.17617798 382.19758606 C-65.18973847 372.73041369 -65.19578246 363.26324556 -65.20018864 353.79606509 C-65.20295494 347.88013097 -65.207193 341.96419848 -65.21169281 336.04826546 C-65.22388253 319.6555857 -65.23418241 303.26290724 -65.2375679 286.87022305 C-65.23789725 285.29760024 -65.23789725 285.29760024 -65.23823325 283.69320727 C-65.23845153 282.64234247 -65.23866981 281.59147768 -65.2388947 280.5087685 C-65.23933816 278.3794622 -65.23978472 276.25015591 -65.24023438 274.12084961 C-65.24056652 272.53654932 -65.24056652 272.53654932 -65.24090537 270.92024297 C-65.24485166 253.81396982 -65.26230185 236.70773931 -65.2855939 219.60148262 C-65.30933688 202.02155231 -65.32177109 184.44164338 -65.32293582 166.86169678 C-65.32385093 156.99816664 -65.32956176 147.13469208 -65.34775543 137.27117729 C-65.36319624 128.87075425 -65.36825347 120.47040395 -65.36001733 112.06996941 C-65.35612488 107.78861234 -65.35697128 103.5074016 -65.37107468 99.22606277 C-65.38389836 95.29706421 -65.38254273 91.36832064 -65.37048396 87.439322 C-65.36854151 86.02745725 -65.37153722 84.61557389 -65.38032833 83.20373517 C-65.45251784 70.81320265 -64.41726064 57.91993571 -58.4375 46.8125 C-58.09525391 46.15523926 -57.75300781 45.49797852 -57.40039062 44.82080078 C-52.50879271 35.80547207 -46.10434313 27.80167653 -37.49609375 22.0859375 C-35.83618891 21.05666487 -35.83618891 21.05666487 -35 19 C-34.93049459 17.45976004 -34.91547643 15.91665012 -34.9375 14.375 C-34.94652344 13.55773438 -34.95554687 12.74046875 -34.96484375 11.8984375 C-34.97644531 11.27195312 -34.98804687 10.64546875 -35 10 C-23.78553877 3.95241096 -12.89158037 -0.10925068 0 0 Z " fill="#E64756" transform="translate(143,8)"/>
<path d="M0 0 C1.24716797 0.02030273 1.24716797 0.02030273 2.51953125 0.04101562 C4.55497066 0.07610941 6.59007291 0.12990772 8.625 0.1875 C8.893125 0.950625 9.16125 1.71375 9.4375 2.5 C10.63344124 5.20660387 11.29885262 6.42243229 13.625 8.1875 C16.30022896 8.6339395 16.30022896 8.6339395 19.38095093 8.55258179 C20.58107315 8.55789413 21.78119537 8.56320648 23.01768494 8.56867981 C24.33619949 8.5593895 25.65471405 8.55009918 27.01318359 8.54052734 C28.41436404 8.54135805 29.81554426 8.54357395 31.21672058 8.54707336 C34.23534404 8.55202626 37.25377335 8.54791877 40.27238083 8.53705978 C45.0459776 8.52071768 49.81933002 8.52915576 54.59292603 8.54190063 C67.31023241 8.57204148 80.02749527 8.57055952 92.74481928 8.55164778 C101.0982675 8.53931628 109.45143957 8.54117039 117.80485594 8.57003558 C122.54967217 8.58527832 127.29373952 8.57777468 132.03850913 8.55332541 C134.9921124 8.54325365 137.9453722 8.55394672 140.89893532 8.57044029 C142.91973712 8.57553659 144.94055375 8.55576851 146.96125793 8.53526306 C155.67585689 8.6144182 155.67585689 8.6144182 159.94047546 11.18934631 C162.13228389 15.09037498 162.30535013 18.40995096 162.22436523 22.76977539 C162.22830795 23.62239456 162.23225067 24.47501373 162.23631287 25.35346985 C162.24301198 28.16463456 162.21388599 30.97416602 162.18359375 33.78515625 C162.17934244 35.7414061 162.17701494 37.697661 162.17652893 39.65391541 C162.17036667 43.75038572 162.1476806 47.84630858 162.11206055 51.94262695 C162.06675856 57.19409384 162.0520328 62.44506539 162.04832363 67.69670963 C162.04389556 71.73474515 162.02859307 75.77267666 162.0094471 79.81066704 C162.00056704 81.74715762 161.993836 83.68365928 161.98928642 85.62016487 C161.98024555 88.32517278 161.95785676 91.02973263 161.93139648 93.73461914 C161.93073181 94.5352478 161.93006714 95.33587646 161.92938232 96.1607666 C161.83265972 103.32365917 161.83265972 103.32365917 159.625 106.1875 C156.11100233 108.48195722 153.046386 108.44800616 148.91358948 108.46838379 C148.23991347 108.47432603 147.56623746 108.48026828 146.87214702 108.48639059 C144.61596747 108.50372667 142.36000062 108.5067777 140.10375977 108.50976562 C138.48568266 108.51902448 136.86760991 108.52907415 135.24954224 108.53985596 C130.85495708 108.56607905 126.46043299 108.57898824 122.06578183 108.58787727 C119.3205637 108.59374112 116.57536224 108.60195105 113.83015251 108.61088562 C105.24179651 108.63822531 96.65347863 108.65756515 88.06508213 108.6652894 C78.14885389 108.67425698 68.23317618 108.70938555 58.31711537 108.76729059 C50.65246496 108.81049655 42.98796965 108.83069635 35.32319874 108.83337164 C30.74482266 108.83546922 26.16696446 108.84731487 21.58871651 108.88301086 C17.28340283 108.91592721 12.97899759 108.92030717 8.67360306 108.90273285 C7.09375643 108.90118973 5.5138614 108.90990954 3.93413734 108.92964935 C1.77613806 108.95503379 -0.37862952 108.94337902 -2.53660583 108.92248535 C-4.34704958 108.92688503 -4.34704958 108.92688503 -6.19406796 108.9313736 C-10.76239668 107.86305177 -11.81456063 106.07639913 -14.375 102.1875 C-14.99188995 100.09164429 -14.99188995 100.09164429 -14.98059082 98.16552734 C-14.9886525 97.42550476 -14.99671417 96.68548218 -15.00502014 95.92303467 C-14.98853928 95.1311676 -14.97205841 94.33930054 -14.95507812 93.5234375 C-14.95753036 92.67388489 -14.9599826 91.82433228 -14.96250916 90.94903564 C-14.96467492 89.11242715 -14.9554486 87.27577702 -14.9360199 85.43927002 C-14.9059123 82.52986644 -14.90699477 79.62193085 -14.9161377 76.71240234 C-14.93240528 69.48915301 -14.89503167 62.26635911 -14.85955811 55.04321289 C-14.83160576 48.93366336 -14.82392557 42.82473766 -14.84312439 36.71514893 C-14.84374126 33.853064 -14.81457826 30.9922715 -14.78430176 28.13037109 C-14.78637672 26.37076589 -14.78984278 24.6111616 -14.79492188 22.8515625 C-14.77844101 22.05969543 -14.76196014 21.26782837 -14.74497986 20.45196533 C-14.80752154 14.71094368 -16.31484642 12.23900339 -20.375 8.1875 C-14.0541689 1.30894851 -9.02548651 -0.28069695 0 0 Z " fill="#EDF6FE" transform="translate(223.375,68.8125)"/>
<path d="M0 0 C0.96739032 -0.00199105 1.93478065 -0.0039821 2.93148583 -0.00603348 C3.99664904 -0.00312064 5.06181224 -0.0002078 6.15925312 0.00279331 C7.85368871 0.00151167 7.85368871 0.00151167 9.58235532 0.00020415 C13.38724472 -0.0014498 17.19209053 0.00406937 20.9969759 0.00952244 C23.71659594 0.01036043 26.43621511 0.00969058 29.15583515 0.00907993 C35.0211371 0.00855509 40.88642795 0.01169781 46.7517271 0.01731777 C55.23200855 0.02543805 63.71228462 0.02804854 72.19256953 0.02930576 C85.95061689 0.03149545 99.70865832 0.03815328 113.46670246 0.04760838 C126.8329131 0.05678464 140.19912212 0.06386443 153.56533527 0.06811619 C154.38895788 0.06837891 155.21258049 0.06864164 156.06116136 0.06891232 C160.19295311 0.07021734 164.32474488 0.07148105 168.45653665 0.07272422 C202.74451628 0.08309424 237.03248821 0.10098514 271.32046223 0.12304783 C271.32046223 7.05304783 271.32046223 13.98304783 271.32046223 21.12304783 C268.24743793 21.12669346 265.17441364 21.13033909 262.0082674 21.13409519 C233.84140803 21.16935653 205.67465938 21.22436534 177.50788505 21.30096878 C173.81780701 21.31098649 170.12772852 21.32083057 166.43764973 21.33056736 C165.70300773 21.33250873 164.96836574 21.33445011 164.21146187 21.33645031 C152.30929345 21.36748888 140.40714432 21.38445613 128.50494304 21.39624205 C116.29621462 21.40864402 104.0875876 21.43612374 91.87892318 21.47766089 C84.34279016 21.50282379 76.80682527 21.51616309 69.27064964 21.5144774 C63.49621463 21.51444419 57.72200397 21.53536778 51.94764805 21.56421566 C49.57565874 21.57275875 47.2036336 21.57443495 44.83163548 21.56885052 C41.60090771 21.56225551 38.37121507 21.58002383 35.14059162 21.6040659 C33.72230875 21.59242527 33.72230875 21.59242527 32.2753737 21.58054948 C27.14415111 21.60668285 27.14415111 21.60668285 22.73771 24.02828693 C20.3287291 27.58887746 20.85045438 29.8929772 21.32046223 34.12304783 C22.86525136 36.24375113 23.74011929 37.01383922 26.33453721 37.50205535 C27.49932932 37.50490325 27.49932932 37.50490325 28.68765259 37.50780869 C29.585375 37.51726523 30.48309741 37.52672177 31.40802354 37.53646487 C32.39536778 37.53161729 33.38271201 37.52676972 34.39997578 37.52177525 C35.97190479 37.53174549 35.97190479 37.53174549 37.57558995 37.54191715 C41.10417013 37.56064178 44.63241405 37.55793546 48.1610384 37.55542088 C50.68362123 37.56443224 53.20619966 37.5747579 55.72877216 37.58630466 C61.16847109 37.60823504 66.60806948 37.62098108 72.04780865 37.62543392 C79.91276195 37.63188778 87.77759911 37.65481159 95.64250568 37.68177722 C108.40224766 37.72507701 121.16198476 37.7550255 133.92178059 37.77661228 C146.31796386 37.79761242 158.71410717 37.82487906 171.11025715 37.86059666 C171.87413985 37.86279548 172.63802254 37.86499431 173.4250532 37.86725976 C177.25716384 37.87832917 181.08927411 37.88952203 184.92138422 37.90077627 C216.72104527 37.99400655 248.52071741 38.0647621 280.32046223 38.12304783 C280.32046223 45.38304783 280.32046223 52.64304783 280.32046223 60.12304783 C244.5825876 60.21352541 208.84474634 60.28511439 173.10678063 60.32730915 C168.88495751 60.33231181 164.66313461 60.33748911 160.44131184 60.34277439 C159.18060991 60.34434825 159.18060991 60.34434825 157.89443926 60.34595391 C144.2962628 60.36334611 130.69815418 60.39487725 117.10001793 60.43165901 C103.14092586 60.46910144 89.18186925 60.49129066 75.22272903 60.49940181 C66.61327877 60.50488274 58.00402026 60.52217656 49.39462904 60.5547137 C43.48609694 60.57590238 37.57766357 60.58223805 31.66909625 60.57705334 C28.26312894 60.57449829 24.85749606 60.57833865 21.45158863 60.59986973 C17.75048531 60.61983665 14.05019549 60.61496147 10.34907246 60.6040659 C9.28386629 60.61571726 8.21866013 60.62736863 7.12117499 60.63937306 C-3.33862199 60.5564192 -12.18158244 57.75524829 -19.73031902 50.36914158 C-26.07316256 43.06025373 -27.450684 36.36661489 -27.10141277 26.75195408 C-26.19634761 18.96671767 -23.38941966 12.58467398 -17.67953777 7.12304783 C-11.99670406 3.25252807 -7.01394351 -0.00318093 0 0 Z " fill="#E9F2FA" transform="translate(147.67953777313232,396.8769521713257)"/>
<path d="M0 0 C0.3573902 7.32678846 0.60108429 14.65130735 0.76904297 21.98486328 C0.83910042 24.47432401 0.93438818 26.96321576 1.05615234 29.45068359 C2.09907971 51.31710188 2.09907971 51.31710188 -2.98535156 57.13916016 C-5.83661667 59.77026459 -8.94362348 61.76623963 -12.2570343 63.76066589 C-23.94115648 72.06864989 -30.02598678 90.08082432 -32.39860916 103.37524796 C-33.85254411 113.1321104 -33.3934469 123.13259546 -33.35302734 132.96826172 C-33.35385943 135.46815572 -33.3560796 137.96804958 -33.35957336 140.46794128 C-33.3644998 145.82394605 -33.36075165 151.17983659 -33.34955978 156.53582382 C-33.33381379 164.28920523 -33.33951463 172.04246591 -33.35117622 179.79584934 C-33.37001191 192.39222076 -33.37928928 204.98857566 -33.37890625 217.58496094 C-33.37888881 218.33672439 -33.37887137 219.08848784 -33.3788534 219.863032 C-33.37840077 228.25803586 -33.37506268 236.65303376 -33.36798096 245.04803467 C-33.36734857 245.80395684 -33.36671619 246.55987902 -33.36606465 247.33870793 C-33.36543208 248.0939746 -33.36479952 248.84924126 -33.36414778 249.6273948 C-33.36287797 251.15068507 -33.36161256 252.67397534 -33.36035156 254.19726562 C-33.35972337 254.94992002 -33.35909518 255.70257441 -33.35844795 256.47803651 C-33.34848627 269.03868247 -33.35783132 281.59922989 -33.38253558 294.15985501 C-33.39694061 301.89282318 -33.39494622 309.62544362 -33.37157358 317.3583916 C-33.35505535 323.28035473 -33.36427995 329.20210091 -33.38294029 335.12406349 C-33.38639131 337.54881053 -33.38129767 339.97358727 -33.36697197 342.39829445 C-33.34860675 345.71198378 -33.36104189 349.02421119 -33.38095093 352.33786011 C-33.36823131 353.29360455 -33.35551169 354.249349 -33.34240663 355.2340554 C-33.42772217 361.83734403 -35.01304293 366.67874969 -39 372 C-43.66552187 376.23406358 -48.28241389 377.15256762 -54.4375 377.1875 C-55.57058594 377.20167969 -56.70367187 377.21585937 -57.87109375 377.23046875 C-60.92224894 377.00572698 -62.38059666 376.43073079 -65 375 C-65.06874031 336.40014237 -65.12156641 297.80029401 -65.15319599 259.2003875 C-65.15694789 254.63823024 -65.16083088 250.0760731 -65.16479492 245.51391602 C-65.16558185 244.60571317 -65.16636878 243.69751032 -65.16717956 242.76178617 C-65.180216 228.07671949 -65.20386009 213.39168821 -65.23145839 198.7066425 C-65.2595617 183.62655679 -65.27618666 168.54648957 -65.28226548 153.46637875 C-65.28637173 144.16908803 -65.29931784 134.87189742 -65.3237494 125.57463754 C-65.33966746 119.18999214 -65.34438669 112.80539812 -65.34050413 106.42073434 C-65.33859198 102.74294858 -65.34142072 99.06533715 -65.35761642 95.38758278 C-65.50592475 59.94213481 -65.50592475 59.94213481 -58.4375 46.8125 C-58.09525391 46.15523926 -57.75300781 45.49797852 -57.40039062 44.82080078 C-52.50879271 35.80547207 -46.10434313 27.80167653 -37.49609375 22.0859375 C-35.83618891 21.05666487 -35.83618891 21.05666487 -35 19 C-34.93049459 17.45976004 -34.91547643 15.91665012 -34.9375 14.375 C-34.94652344 13.55773438 -34.95554687 12.74046875 -34.96484375 11.8984375 C-34.97644531 11.27195312 -34.98804687 10.64546875 -35 10 C-23.78553877 3.95241096 -12.89158037 -0.10925068 0 0 Z " fill="#EA616E" transform="translate(143,8)"/>
<path d="M0 0 C1.42292906 -0.00677882 2.84584934 -0.01568344 4.26875305 -0.02655029 C8.12872853 -0.0493299 11.98803516 -0.0405106 15.84802222 -0.02465487 C19.8952663 -0.01197638 23.94245394 -0.02374252 27.98970032 -0.03158569 C34.79141485 -0.04068183 41.59285795 -0.0287009 48.39453125 -0.00488281 C56.2398211 0.02227394 64.08446011 0.01355426 71.92973393 -0.01401484 C78.67733761 -0.03677153 85.42474628 -0.03987246 92.17237598 -0.02682149 C96.19690617 -0.0190558 100.22113153 -0.0179042 104.24564171 -0.03450394 C108.03556746 -0.04904345 111.82466314 -0.03875663 115.61450005 -0.01003265 C116.99870176 -0.0034696 118.38297437 -0.00523688 119.76714706 -0.01634598 C129.10969028 -0.08436124 136.98615295 0.85683006 144.09513378 7.40225792 C150.15574304 13.8136889 151.63857289 20.38506041 151.59277344 28.92773438 C151.59963669 29.83113556 151.60649994 30.73453674 151.61357117 31.66531372 C151.63179268 34.63592484 151.62800788 37.60600542 151.62231445 40.57666016 C151.62687884 42.6525998 151.63218518 44.72853793 151.63819885 46.80447388 C151.64712113 51.15031074 151.64471725 55.49596376 151.63476562 59.84179688 C151.62328386 65.39551835 151.64348013 70.94860325 151.67268276 76.50224113 C151.69107996 80.78838089 151.69074515 85.07436913 151.68504524 89.36053848 C151.68489242 91.40734881 151.690904 93.45416966 151.70333672 95.50094223 C151.71830941 98.370168 151.70752319 101.23823106 151.69042969 104.10742188 C151.70493164 105.36084381 151.70493164 105.36084381 151.71972656 106.6395874 C151.62029227 114.65960166 148.83034305 121.83942025 143.1887207 127.64697266 C137.03463002 132.32943296 131.71489285 133.89370893 124.02920532 133.91439819 C123.33143585 133.91892931 122.63366637 133.92346042 121.91475236 133.92812884 C119.58885187 133.94073622 117.26318663 133.93915488 114.93725586 133.9375 C113.26464031 133.9434875 111.59202751 133.95029356 109.91941833 133.95785522 C105.38424232 133.97549882 100.84914182 133.98020988 96.3139348 133.9814868 C93.47856266 133.98290977 90.64320964 133.9871821 87.80784225 133.99248123 C77.91070082 134.01097535 68.01361322 134.01915253 58.11645508 134.01757812 C48.89941916 134.01637656 39.68261734 134.03748343 30.46564066 134.06906545 C22.54442993 134.0952377 14.62329562 134.10594504 6.70204198 134.10466731 C1.97450167 134.104158 -2.75283047 134.10982416 -7.48032761 134.13102341 C-11.92752613 134.15042206 -16.37431823 134.15051922 -20.8215313 134.13599014 C-22.45009011 134.13390303 -24.07867447 134.13859714 -25.70718956 134.15071106 C-36.73262778 134.22738892 -44.41403731 133.49147155 -52.8112793 125.64697266 C-60.478813 115.78907306 -59.67601529 104.60160297 -59.57299805 92.74462891 C-59.57450287 90.73351311 -59.57793879 88.72239792 -59.58320618 86.71128845 C-59.58751621 82.51954611 -59.57085118 78.32857893 -59.53857422 74.13696289 C-59.49861516 68.76773314 -59.50817786 63.3999407 -59.53280926 58.03066349 C-59.54698762 53.88787545 -59.53691238 49.74542345 -59.51929665 45.60265923 C-59.51345559 43.62233724 -59.51473627 41.64198077 -59.52332115 39.66166878 C-59.53131605 36.89956089 -59.50707152 34.13956834 -59.47412109 31.37768555 C-59.4826712 30.56359726 -59.49122131 29.74950897 -59.50003052 28.91075134 C-59.41341059 24.70231939 -59.14999234 23.08542224 -56.48860168 19.6403656 C-53.8112793 17.64697266 -53.8112793 17.64697266 -50.3112793 17.02197266 C-45.81466934 17.82493872 -44.5913036 19.05417387 -41.8112793 22.64697266 C-41.3340051 25.69342091 -41.15848841 28.17469288 -41.21533203 31.21337891 C-41.20924423 32.48989822 -41.20924423 32.48989822 -41.20303345 33.79220581 C-41.19752435 35.63481662 -41.20350188 37.47748994 -41.21969414 39.32003784 C-41.24511718 42.23748838 -41.24031567 45.15352631 -41.22779846 48.07104492 C-41.20705461 54.26317629 -41.22673567 60.45487011 -41.2487793 66.64697266 C-41.26988347 73.82322391 -41.27445801 80.99902089 -41.24827766 88.17526245 C-41.24491603 91.04774769 -41.26614114 93.91936567 -41.28868103 96.79174805 C-41.28616966 98.55468942 -41.28260952 100.31762972 -41.27783203 102.08056641 C-41.29071762 102.87759979 -41.30360321 103.67463318 -41.31687927 104.49581909 C-41.28525857 107.99547896 -41.00428922 110.32262943 -39.20082951 113.3532505 C-36.05077132 116.376982 -34.41568792 116.26682009 -30.09313965 116.25497437 C-29.41875807 116.25995206 -28.7443765 116.26492975 -28.04955912 116.27005827 C-25.79044361 116.28063349 -23.53315084 116.25548171 -21.27416992 116.23046875 C-19.65447319 116.23069545 -18.0347755 116.23310951 -16.41508484 116.23754883 C-12.01617047 116.24325981 -7.61791773 116.21794721 -3.21912956 116.18687391 C1.38208844 116.15934327 5.9833072 116.15933449 10.58459473 116.15615845 C18.3119655 116.14695212 26.0390889 116.11941229 33.76635742 116.07910156 C44.66561091 116.02229578 55.5647397 115.99995456 66.464118 115.98381686 C74.01100039 115.97136052 81.55786388 115.95068319 89.10472298 115.92843676 C90.93533833 115.92307461 92.76595436 115.91793809 94.59657097 115.91302443 C99.81549717 115.89871732 105.03435247 115.87928166 110.25322533 115.85154724 C111.83507247 115.84382824 113.41692869 115.83776534 114.99878883 115.83346939 C117.15610625 115.82724705 119.3133022 115.81489119 121.47058105 115.8008728 C122.67846535 115.7953005 123.88634964 115.7897282 125.13083649 115.78398705 C127.67701909 115.66990043 129.7689579 115.39793403 132.1887207 114.64697266 C133.34531576 110.49281956 133.3513593 106.4633443 133.36572266 102.17822266 C133.37557945 100.89951294 133.37557945 100.89951294 133.38563538 99.5949707 C133.40531928 96.77897043 133.41701692 93.96302322 133.42700195 91.14697266 C133.43107748 90.18476807 133.43515301 89.22256348 133.43935204 88.23120117 C133.46018678 83.14323136 133.47450256 78.05528836 133.48388672 72.96728516 C133.49497612 67.70785879 133.52941245 62.4488526 133.56905842 57.1895752 C133.5951637 53.14729002 133.60357288 49.10510621 133.6071682 45.06274414 C133.61204598 43.12342474 133.6236937 41.18411022 133.64220619 39.24487305 C133.6664796 36.53481297 133.665655 33.8258575 133.65869141 31.11572266 C133.67150146 30.31352295 133.68431152 29.51132324 133.69750977 28.68481445 C133.66601298 25.32747154 133.57937115 23.1653081 131.52549934 20.44012356 C128.57499225 18.17602188 127.0061635 18.15170886 123.31251526 18.16163635 C122.11101837 18.15494934 120.90952148 18.14826233 119.6716156 18.14137268 C118.35669632 18.15425827 117.04177704 18.16714386 115.68701172 18.18041992 C114.28568339 18.1798711 112.88435477 18.17749587 111.48303223 18.1734314 C108.46709 18.16825566 105.45151128 18.17532477 102.43560982 18.19168282 C97.66610677 18.21679045 92.896963 18.21052035 88.12742615 18.19920349 C76.2809962 18.17599734 64.43466971 18.19443256 52.58825684 18.22070312 C43.38147393 18.24064679 34.17497769 18.24923214 24.96819443 18.22376674 C20.22752387 18.21194882 15.48766953 18.22360917 10.74708378 18.25301945 C7.79677763 18.26628046 4.8467876 18.25885307 1.896492 18.24573898 C-0.12193474 18.24299898 -2.14034717 18.2651805 -4.15864563 18.2881012 C-14.02298259 18.21023245 -14.02298259 18.21023245 -17.12416077 15.32847595 C-19.37372584 11.75302109 -19.55234286 9.79692862 -18.8112793 5.64697266 C-14.4449949 -1.33111542 -7.47804199 -0.05953944 0 0 Z " fill="#010101" transform="translate(250.811279296875,60.35302734375)"/>
<path d="M0 0 C34.07352501 -0.0451909 68.14703886 -0.08100741 102.22058712 -0.10213066 C106.24113365 -0.10463214 110.26168012 -0.10722078 114.28222656 -0.10986328 C115.08266208 -0.1103879 115.8830976 -0.11091252 116.70778874 -0.11145304 C129.67694794 -0.12016123 142.64608946 -0.13593348 155.61523816 -0.15430559 C168.91776235 -0.17299313 182.22027726 -0.18411429 195.52281404 -0.18817699 C203.73453524 -0.19092443 211.94620646 -0.19960935 220.15791228 -0.21583293 C225.78511329 -0.22638567 231.41228835 -0.22960452 237.03949854 -0.22700275 C240.2885608 -0.22571879 243.53751682 -0.22880461 246.78656769 -0.23841095 C250.30600434 -0.24830964 253.82522423 -0.24598739 257.34466553 -0.24050903 C258.3757883 -0.24633472 259.40691108 -0.2521604 260.46928 -0.25816262 C261.41079421 -0.25418052 262.35230842 -0.25019842 263.32235336 -0.24609566 C264.13495487 -0.2468551 264.94755638 -0.24761454 265.78478217 -0.24839699 C268.30829605 0.03456988 269.86424173 0.63401802 272 2 C274.32891212 5.49336818 274.23551143 6.86007865 274.1953125 10.98046875 C274.18886719 12.14384766 274.18242187 13.30722656 274.17578125 14.50585938 C274.15902344 15.72080078 274.14226562 16.93574219 274.125 18.1875 C274.11597656 19.41404297 274.10695313 20.64058594 274.09765625 21.90429688 C274.07406017 24.93639295 274.04113841 27.96809938 274 31 C272.69447143 31.00238835 271.38894285 31.00477671 270.04385281 31.00723743 C239.00495448 31.06468318 207.9661339 31.13747445 176.92731875 31.22898628 C173.10120436 31.24025351 169.27508961 31.25139211 165.44897461 31.26245117 C164.30648052 31.2657567 164.30648052 31.2657567 163.14090575 31.269129 C150.83231689 31.30443463 138.5237281 31.32933669 126.21510749 31.35034702 C113.571286 31.37216287 100.92752982 31.40526783 88.28376395 31.44870156 C80.49126776 31.475119 72.69885285 31.49288716 64.90631414 31.49934604 C58.91593288 31.50525801 52.9257107 31.52692923 46.93538475 31.55427551 C44.48899873 31.56302642 42.04258862 31.56678447 39.59618759 31.56500816 C28.03040999 31.55926488 16.96929493 31.61809669 5.68817997 34.35895061 C3 35 3 35 0 35 C0 23.45 0 11.9 0 0 Z " fill="#FE8B94" transform="translate(160,17)"/>
<path d="M0 0 C8.77963382 -0.11593729 17.55900348 -0.20473657 26.33923626 -0.25906086 C30.41645567 -0.28513629 34.49315073 -0.32049537 38.57006836 -0.37719727 C42.50584363 -0.43159253 46.44111512 -0.461436 50.37723732 -0.47438622 C51.8775812 -0.48361281 53.37789802 -0.5016309 54.87802696 -0.52865028 C56.98268196 -0.56504452 59.08526565 -0.56994161 61.19018555 -0.56762695 C62.38709518 -0.57873001 63.58400482 -0.58983307 64.81718445 -0.60127258 C69.09822167 0.20746743 70.50036297 1.44803821 73 5 C73.47924052 8.05224832 73.65591995 10.53765072 73.59936523 13.58227539 C73.60330795 14.43489456 73.60725067 15.28751373 73.61131287 16.16596985 C73.61801198 18.97713456 73.58888599 21.78666602 73.55859375 24.59765625 C73.55434244 26.5539061 73.55201494 28.510161 73.55152893 30.46641541 C73.54536667 34.56288572 73.5226806 38.65880858 73.48706055 42.75512695 C73.44175856 48.00659384 73.4270328 53.25756539 73.42332363 58.50920963 C73.41889556 62.54724515 73.40359307 66.58517666 73.3844471 70.62316704 C73.37556704 72.55965762 73.368836 74.49615928 73.36428642 76.43266487 C73.35524555 79.13767278 73.33285676 81.84223263 73.30639648 84.54711914 C73.30573181 85.3477478 73.30506714 86.14837646 73.30438232 86.9732666 C73.20765972 94.13615917 73.20765972 94.13615917 71 97 C68.03213808 98.80033469 65.82936117 99.24845475 62.38092041 99.24050903 C61.45827896 99.24325836 60.53563751 99.24600769 59.58503723 99.24884033 C58.58018784 99.24164978 57.57533844 99.23445923 56.54003906 99.22705078 C55.47631577 99.22734283 54.41259247 99.22763489 53.31663513 99.22793579 C49.79954887 99.2265421 46.28267427 99.21097882 42.765625 99.1953125 C40.32753617 99.19158252 37.88944584 99.18873547 35.45135498 99.18673706 C29.03322209 99.17909948 22.61517966 99.15944982 16.19708252 99.1373291 C9.64832788 99.11687342 3.09955863 99.10773593 -3.44921875 99.09765625 C-16.29951777 99.07620414 -29.14975407 99.04245085 -42 99 C-41.25063898 94.10080328 -39.69818621 92.33841989 -36 89 C-13.96347716 68.29677938 -2.77020911 42.4050573 -0.8359375 12.27734375 C-0.75239014 11.08943237 -0.66884277 9.901521 -0.58276367 8.6776123 C-0.38049947 5.78552525 -0.18638314 2.89314636 0 0 Z " fill="#CAE2F9" transform="translate(312,78)"/>
<path d="M0 0 C0.96739032 -0.00199105 1.93478065 -0.0039821 2.93148583 -0.00603348 C3.99664904 -0.00312064 5.06181224 -0.0002078 6.15925312 0.00279331 C7.85368871 0.00151167 7.85368871 0.00151167 9.58235532 0.00020415 C13.38724472 -0.0014498 17.19209053 0.00406937 20.9969759 0.00952244 C23.71659594 0.01036043 26.43621511 0.00969058 29.15583515 0.00907993 C35.0211371 0.00855509 40.88642795 0.01169781 46.7517271 0.01731777 C55.23200855 0.02543805 63.71228462 0.02804854 72.19256953 0.02930576 C85.95061689 0.03149545 99.70865832 0.03815328 113.46670246 0.04760838 C126.8329131 0.05678464 140.19912212 0.06386443 153.56533527 0.06811619 C154.38895788 0.06837891 155.21258049 0.06864164 156.06116136 0.06891232 C160.19295311 0.07021734 164.32474488 0.07148105 168.45653665 0.07272422 C202.74451611 0.08309424 237.03248853 0.1007103 271.32046223 0.12304783 C271.32046223 2.10304783 271.32046223 4.08304783 271.32046223 6.12304783 C270.02855126 6.1235926 268.7366403 6.12413736 267.40558052 6.12469864 C236.70104061 6.13875914 205.99665335 6.17858344 175.29219713 6.24990345 C171.50856911 6.25866964 167.72494064 6.26721954 163.94131184 6.27563572 C162.81148858 6.27815431 162.81148858 6.27815431 161.65884062 6.28072379 C149.48144688 6.30735444 137.30410022 6.31648604 125.12668035 6.31908926 C112.62070475 6.32215454 100.1148647 6.34416754 87.60895032 6.3835724 C79.89929691 6.40727348 72.18991452 6.4163995 64.48022976 6.40656094 C58.55684945 6.40058974 52.63373998 6.42104965 46.71042728 6.45110798 C44.28900295 6.45932221 41.86753239 6.45911383 39.44611263 6.44964504 C23.0369051 6.39185315 9.76439811 6.66889443 -2.58969402 18.80273533 C-10.47821928 27.5612101 -12.91333226 37.01573633 -13.27328777 48.65429783 C-13.40735027 49.46898533 -13.54141277 50.28367283 -13.67953777 51.12304783 C-14.66953777 51.78304783 -15.65953777 52.44304783 -16.67953777 53.12304783 C-24.57936874 44.69656147 -27.4070393 38.63215258 -27.06625652 26.82226658 C-26.24885237 19.00325914 -23.40146743 12.59619793 -17.67953777 7.12304783 C-11.99670406 3.25252807 -7.01394351 -0.00318093 0 0 Z " fill="#CAE2F9" transform="translate(147.67953777313232,396.8769521713257)"/>
<path d="M0 0 C0.58263235 0.14130042 1.1652647 0.28260083 1.76555258 0.42818308 C8.57787925 1.9507608 15.0383394 2.28633057 22.00205994 2.26501465 C23.7574199 2.27158655 23.7574199 2.27158655 25.54824167 2.27829123 C28.7693475 2.2884239 31.99031491 2.28978465 35.21143115 2.28735614 C38.6953431 2.28693437 42.17922081 2.29805595 45.66311646 2.30781555 C51.69089367 2.3232264 57.7186476 2.33167036 63.74644279 2.33552551 C72.46475815 2.34128621 81.18301096 2.35989265 89.90129859 2.38196605 C104.05243428 2.41763308 118.2035735 2.44597194 132.35473633 2.46826172 C133.20061959 2.46959671 134.04650285 2.4709317 134.91801894 2.47230715 C141.78495791 2.48308897 148.65189741 2.49351316 155.51883698 2.5039072 C161.53184535 2.51302085 167.54485349 2.52227218 173.55786133 2.53173828 C174.40483162 2.53306902 175.25180192 2.53439977 176.12443798 2.53577083 C190.2329921 2.55817918 204.34151923 2.58835868 218.45004565 2.62413073 C227.15069796 2.64581279 235.85130831 2.66042105 244.55198617 2.66596949 C250.50568431 2.67020798 256.45934238 2.68142262 262.41301834 2.69819343 C265.8503572 2.70762086 269.28762111 2.71370428 272.72497368 2.71113014 C276.44567794 2.70997881 280.1661524 2.72092429 283.88682556 2.73498535 C284.9801861 2.73168638 286.07354665 2.7283874 287.20003933 2.72498846 C288.68890017 2.7343366 288.68890017 2.7343366 290.20783901 2.7438736 C291.06704148 2.74506777 291.92624394 2.74626195 292.81148285 2.74749231 C295 3 295 3 298 5 C298 6.32 298 7.64 298 9 C295.60005379 10.1999731 294.11070612 10.12957946 291.43017769 10.13701439 C290.46172861 10.14208893 289.49327954 10.14716347 288.49548352 10.15239179 C287.42392006 10.15288955 286.35235661 10.15338731 285.24832153 10.15390015 C284.11576836 10.1582824 282.9832152 10.16266465 281.81634223 10.1671797 C277.99491013 10.18060819 274.17350111 10.18675573 270.35205078 10.19287109 C267.62248962 10.20024029 264.89293332 10.20903261 262.16337585 10.21765137 C253.95051522 10.24219386 245.73764849 10.25680843 237.52476245 10.26971143 C235.20434789 10.27342305 232.88393392 10.27739634 230.56351995 10.2814641 C216.15109764 10.30670834 201.73867437 10.32875956 187.32623482 10.34119225 C183.98637005 10.34412193 180.64650532 10.34708358 177.30664062 10.35009766 C176.06148644 10.35121673 176.06148644 10.35121673 174.79117762 10.35235842 C161.35867139 10.36499871 147.92629793 10.39820197 134.4938537 10.43989949 C120.69854018 10.48237156 106.90329448 10.50589366 93.10791576 10.51111281 C85.36428417 10.51452176 77.62085976 10.52621512 69.87729263 10.55921555 C63.2786697 10.58729032 56.68029639 10.59818321 50.08161838 10.58702008 C46.71785876 10.58185135 43.35504241 10.58735677 39.99128914 10.60948563 C36.33426645 10.63222828 32.67854558 10.62385636 29.02151489 10.60800171 C27.44763054 10.62882484 27.44763054 10.62882484 25.84195054 10.65006864 C16.30668414 10.54870757 7.88947621 7.34928558 0 2 C0 1.34 0 0.68 0 0 Z " fill="#EA616E" transform="translate(134,471)"/>
<path d="M0 0 C1.58638527 -0.00591408 1.58638527 -0.00591408 3.20481873 -0.01194763 C6.6922071 -0.01864749 10.17827958 0.01048201 13.66552734 0.04077148 C16.09117377 0.0450224 18.51682426 0.04735025 20.94247437 0.0478363 C26.02157066 0.05399877 31.10022545 0.07668788 36.17919922 0.11230469 C42.69398711 0.15762477 49.20837569 0.17233338 55.72330666 0.1760416 C60.72982735 0.18046699 65.73626401 0.19576446 70.74274826 0.21491814 C73.145352 0.22380465 75.54796472 0.23053256 77.9505806 0.23507881 C81.30444718 0.24410763 84.65795036 0.26648594 88.01171875 0.29296875 C89.00714188 0.29363342 90.002565 0.2942981 91.02815247 0.29498291 C92.3991082 0.3099456 92.3991082 0.3099456 93.79776001 0.32521057 C94.98624511 0.33218633 94.98624511 0.33218633 96.19874001 0.33930302 C98.69456551 0.63735257 100.25891174 1.25160091 102.37646484 2.59936523 C104.87678139 6.34984005 104.91250038 8.15792789 104.37646484 12.59936523 C102.34864418 15.52787391 100.73454043 17.31696874 97.15791321 18.06068802 C94.32711906 18.25241667 91.53597694 18.27471078 88.69873047 18.24633789 C87.62338547 18.25509949 86.54804047 18.26386108 85.44010925 18.27288818 C81.88723343 18.29488604 78.33560322 18.28032675 74.78271484 18.26342773 C72.3131893 18.26679572 69.84366537 18.27164819 67.37414551 18.27792358 C62.19913955 18.2852955 57.02456517 18.27457834 51.84960938 18.2512207 C45.21467995 18.22273369 38.58076176 18.23913582 31.94586945 18.26908302 C26.84662246 18.28714681 21.7476154 18.28140197 16.64836121 18.26844406 C14.20191834 18.26510756 11.75545372 18.26920565 9.30903625 18.28084183 C5.89016993 18.29353446 2.47294334 18.27419282 -0.94580078 18.24633789 C-1.95790115 18.25645905 -2.97000153 18.2665802 -4.01277161 18.27700806 C-8.68026415 18.20652152 -10.91311434 18.12726799 -14.7479248 15.27767944 C-16.62353516 12.59936523 -16.62353516 12.59936523 -17.31103516 9.09936523 C-16.5693973 5.32375432 -15.59426431 3.96755646 -12.5873909 1.62956047 C-8.63469224 -0.44393772 -4.36569934 -0.0653255 0 0 Z " fill="#040102" transform="translate(253.62353515625,227.400634765625)"/>
</svg>
